# xmcd
#
# Track frame offsets:
#	150
#	12567
#	28789
#	44383
#	57729
#	73436
#	89685
#	102855
#	115533
#	129961
#	145741
#	161195
#	176986
#	194588
#	210640
#	224034
#	240269
#	252400
#	269029
#
# Disc length: 3766 seconds
#
# Revision: 1
# Processed by: cddbd v1.5.2PL0 Copyright (c) Steve Scherf et al.
# Submitted via: audiograbber 1.82.02
#
DISCID=340eb413
DTITLE=Various Artist - Country Radio - September 2016
DYEAR=2016
DGENRE=Country
TTITLE0=Ryan Follese - Float Your Boat
TTITLE1=Chase Rice - Everybody We Know Does
TTITLE2=Tim McGraw - How I'll Always Be
TTITLE3=Steven Tyler - We're All Somebody From Somewhere
TTITLE4=Randy Houser - Chasing Down A Good Time
TTITLE5=LoCash - Fighters, The
TTITLE6=Chase Bryant - Room To Breathe
TTITLE7=Michael Tyler - Crazy Last Night
TTITLE8=Dustin Lynch - Seein' Red
TTITLE9=Trent Harmon - There's A Girl
TTITLE10=Trace Adkins - Lit
TTITLE11=Lucas Hoge - Boom Boom
TTITLE12=Jana Kramer - Circles
TTITLE13=Lauren Alaina - Road Less Traveled
TTITLE14=Dee Jay Silver (Ft. Austin Webb) - Just Got Paid
TTITLE15=Jason Aldean - A Little More Summertime
TTITLE16=Kane Brown - Thunder In The Rain
TTITLE17=RaeLynn - Love Triangle
TTITLE18=Eric Paslay - Angels In This Town
EXTD=
EXTT0=
EXTT1=
EXTT2=
EXTT3=
EXTT4=
EXTT5=
EXTT6=
EXTT7=
EXTT8=
EXTT9=
EXTT10=
EXTT11=
EXTT12=
EXTT13=
EXTT14=
EXTT15=
EXTT16=
EXTT17=
EXTT18=
PLAYORDER=
